<svg width="90" height="99" xmlns="http://www.w3.org/2000/svg">
 <defs>
  <filter id="d">
   <feGaussianBlur stdDeviation="2.76074"/>
  </filter>
  <filter height="1.3585" width="1.3599" y="-0.17925" x="-0.17994" id="c">
   <feGaussianBlur stdDeviation="18.47879"/>
  </filter>
  <linearGradient y2="0.719909" y1="0.097069" x2="0.631321" x1="0.163631" id="b">
   <stop offset="0" stop-color="#fff"/>
   <stop offset="1" stop-opacity="0" stop-color="#fff"/>
  </linearGradient>
  <linearGradient y2="1.199867" y1="0.066463" x2="1.3714" x1="0.063432" id="a">
   <stop offset="0" stop-color="#fefdb7"/>
   <stop offset="1" stop-color="#f5f06c"/>
  </linearGradient>
 </defs>
 <g>
  <title>background</title>
  <rect fill="none" id="canvas_background" height="101" width="92" y="-1" x="-1"/>
 </g>
 <g>
  <title>Layer 1</title>
  <g id="svg_1">
   <path id="svg_2" filter="url(#d)" fill-rule="evenodd" fill="#a0892c" d="m89.976255,9.802522c-4.9201,30.272 -5.1802,61.312 3.697,85.737c-29.197,-3.2209 -58.105,-11.17 -87.999,-1.4359c0.10373,0.28294 5.9012,5.2384 -0.32349,-0.30827c-0.53787,-36.382 2.3972,-50.858 0,-83.993c0,-0.17078 0.14427,-0.30826 0.32349,-0.30826c28.208,1.077 56.508,2.6105 83.979,0c0.17921,0 0.32349,0.13749 0.32349,0.30826l-0.00049,0.00017z"/>
   <path id="svg_3" fill-rule="evenodd" fill="url(#a)" d="m85.166255,5.558422c-1.1611,28.222 -0.65452,58.844 3.697,85.737c-29.947,-0.4085 -60.228,-3.2103 -87.999,-1.4359c0.10373,0.28294 5.9012,5.2384 -0.32349,-0.30827c-0.53787,-36.382 2.3972,-50.858 0,-83.993c0,-0.17078 0.14427,-0.30826 0.32349,-0.30826c28.208,1.077 56.508,2.6105 83.979,0c0.17921,0 0.32349,0.13749 0.32349,0.30826l-0.00049,0.00017z"/>
   <path id="svg_4" opacity="0.27778" fill-rule="evenodd" fill="url(#b)" d="m88.606255,5.285722l-40.834,-0.15028l-48.474,-0.71617s-5.1914,129.14 37.87,58.289s47.01,-48.248 51.438,-57.423l0,0.00045z"/>
   <path id="svg_5" filter="url(#c)" fill="#a0892c" d="m49.635449,11.75046a6.854068,6.462795 0 1 1 -13.708691,2.50573a6.854068,6.462795 0 1 1 13.708691,-2.50573z"/>
   <path id="svg_6" fill="#d40000" d="m51.213449,9.81946a6.854068,6.462795 0 1 1 -13.708691,2.50573a6.854068,6.462795 0 1 1 13.708691,-2.50573z"/>
   <path id="svg_7" fill="#e00" d="m51.589255,9.487622l-6.7104,1.2271l-1.405,6.3478c0.77969,0.1188 1.5938,0.12061 2.4197,-0.03033c3.7228,-0.68037 6.237,-4.0384 5.6957,-7.5446l0,0.00003z"/>
   <path id="svg_8" fill="#f00" d="m44.937255,3.985022c-0.46179,-0.00462 -0.93203,0.0349 -1.405,0.12133c-3.7834,0.69144 -6.3242,4.1481 -5.6722,7.7155c0.50965,2.7886 2.8225,4.8153 5.6143,5.2407l1.405,-6.3478l6.7104,-1.2271c-0.0088,-0.05706 -0.01162,-0.11384 -0.02206,-0.17097c-0.57048,-3.1215 -3.398,-5.2993 -6.6305,-5.3317l0.00006,0.00004z"/>
   <path id="svg_9" fill="#a00" d="m42.097255,7.549422l-0.50372,0.3724l-0.92915,0.69483c-0.37931,0.8063 -0.32641,1.6618 -0.08897,2.5706c0.61601,2.3578 2.3696,3.5104 4.8441,3.2292c1.2666,-0.1439 2.427,-0.56986 3.1386,-1.4749l1.2904,-1.6182l-7.7513,-3.774l0.00004,0.00007z"/>
   <path id="svg_10" fill="#d40000" d="m51.52333,6.977699a5.356862,5.050756 0 1 1 -10.714158,1.957679a5.356862,5.050756 0 1 1 10.714158,-1.957679z"/>
   <path id="svg_11" fill="#f00" d="m51.90733,6.626699a5.356862,5.050756 0 1 1 -10.714158,1.957679a5.356862,5.050756 0 1 1 10.714158,-1.957679z"/>
  </g>
 </g>
</svg>